<svg width="36" height="35" viewBox="0 0 36 35" fill="none" xmlns="http://www.w3.org/2000/svg">
<path d="M1.224 0.207997H4.584L4.152 27.328H1.656L1.224 0.207997ZM2.856 34.624C2.312 34.624 1.832 34.416 1.416 34C1.032 33.616 0.84 33.152 0.84 32.608C0.84 32.032 1.032 31.552 1.416 31.168C1.832 30.752 2.312 30.544 2.856 30.544C3.432 30.544 3.912 30.752 4.296 31.168C4.712 31.552 4.92 32.032 4.92 32.608C4.92 33.152 4.712 33.616 4.296 34C3.912 34.416 3.432 34.624 2.856 34.624ZM15.6844 3.856C15.0444 3.856 14.5644 3.904 14.2444 4C13.9564 4.064 13.7004 4.208 13.4764 4.432C13.2844 4.624 13.1084 4.896 12.9484 5.248C12.8204 5.568 12.7564 5.872 12.7564 6.16L10.1164 6.112C10.1804 4.608 10.6604 3.408 11.5564 2.512C12.0364 2.064 12.5964 1.744 13.2364 1.552C13.9084 1.328 14.7404 1.2 15.7324 1.168H26.0524C28.9324 1.168 31.1884 2.112 32.8204 4C34.4524 5.888 35.2684 8.336 35.2684 11.344C35.2684 13.616 34.7884 15.536 33.8284 17.104C32.8684 18.64 31.5884 19.792 29.9884 20.56C28.3884 21.296 26.6124 21.664 24.6604 21.664C23.8284 21.664 22.6444 21.584 21.1084 21.424V18.832C22.6124 18.928 23.7164 18.976 24.4204 18.976C29.7324 18.976 32.3884 16.448 32.3884 11.392C32.3884 8.896 31.7644 7.024 30.5164 5.776C29.2684 4.496 27.5564 3.856 25.3804 3.856H18.5644V34.048H15.6844V3.856Z" fill="#64FFDA"/>
</svg>
